<svg xmlns="http://www.w3.org/2000/svg" viewBox="0 0 60 50"><g id="Capa_2" data-name="Capa 2"><g id="Capa_1-2" data-name="Capa 1"><path d="M.07,14c1.23.67,2.29,1.24,3.35,1.83,8.3,4.69,16.62,9.36,24.91,14.09a3.14,3.14,0,0,0,3.42,0q13.36-7.59,26.77-15.11l1.4-.74c0,.71.08,1.22.08,1.73v24C60,46.12,56.31,50,50.23,50H9.78C3.71,50,0,46.11,0,39.75V15.58C0,15.11,0,14.64.07,14Z"/><path d="M30,0C36.94,0,43.87,0,50.8,0a9,9,0,0,1,8.87,6.9,1.78,1.78,0,0,1-1,2.42C49.43,14.47,40.24,19.71,31,24.85a2.27,2.27,0,0,1-1.89,0C19.79,19.71,10.51,14.43,1.19,9.24A1.64,1.64,0,0,1,.29,7,9.05,9.05,0,0,1,9.22,0C16.15,0,23.08,0,30,0Z"/></g></g></svg>