<svg xmlns="http://www.w3.org/2000/svg" viewBox="0 0 46.51 47.38"><defs><style>.cls-1{fill:#fff;}</style></defs><g id="Capa_2" data-name="Capa 2"><g id="Capa_1-2" data-name="Capa 1"><path class="cls-1" d="M46.48,23.7c0,4.07.06,8.13,0,12.2a11.32,11.32,0,0,1-5.75,9.89,11.15,11.15,0,0,1-5.94,1.59H11.71a11.66,11.66,0,0,1-11.4-9A11.65,11.65,0,0,1,0,35.71q0-12,0-24A11.38,11.38,0,0,1,3.94,2.92,11.27,11.27,0,0,1,9.66.17a11.18,11.18,0,0,1,2-.17H34.84A11.64,11.64,0,0,1,46.49,11.72c0,4,0,8,0,12Zm-3.61,0V13.37a9.35,9.35,0,0,0-.75-3.65,9.72,9.72,0,0,0-3.85-4.53,9.28,9.28,0,0,0-5.06-1.5H13.46A9.81,9.81,0,0,0,6.6,6.46a9.61,9.61,0,0,0-3,7.11q0,10.13,0,20.23a10.4,10.4,0,0,0,.2,2.08,9.5,9.5,0,0,0,2.4,4.65,9.6,9.6,0,0,0,7.29,3.17H33a11.28,11.28,0,0,0,1.42-.09,9.4,9.4,0,0,0,4.78-2.07,9.54,9.54,0,0,0,3.68-7.62C42.89,30.52,42.87,27.11,42.87,23.71Z"/><path class="cls-1" d="M23.26,11.79A11.9,11.9,0,1,1,11.35,24,11.88,11.88,0,0,1,23.26,11.79ZM32,23.71a5.42,5.42,0,0,0,0-.57,8.75,8.75,0,0,0-2.36-5.57,8.39,8.39,0,0,0-7.7-2.73,8.27,8.27,0,0,0-5.28,3,8.86,8.86,0,0,0-2,7.29A8.6,8.6,0,0,0,17,30a8.45,8.45,0,0,0,7.09,2.61,8.19,8.19,0,0,0,4.69-2A8.86,8.86,0,0,0,32,23.71Z"/><path class="cls-1" d="M32,11.32a3.58,3.58,0,1,1,3.56,3.57A3.57,3.57,0,0,1,32,11.32Z"/></g></g></svg>