<svg xmlns="http://www.w3.org/2000/svg" viewBox="0 0 50 50"><g id="Capa_2" data-name="Capa 2"><g id="Capa_1-2" data-name="Capa 1"><path d="M50,10.82a18.83,18.83,0,0,0-.31-3,9.62,9.62,0,0,0-8-7.58A27.28,27.28,0,0,0,37.37,0H12.57L11.2,0A19,19,0,0,0,7.84.35,9.6,9.6,0,0,0,.25,8.4,27.11,27.11,0,0,0,0,12.53V37.09c0,.57,0,1.13,0,1.69a19.27,19.27,0,0,0,.32,3.39,9.62,9.62,0,0,0,8,7.58,27.7,27.7,0,0,0,4.17.24H37.49c.45,0,.89,0,1.33,0a19.68,19.68,0,0,0,3.34-.32,9.61,9.61,0,0,0,7.59-8A26.46,26.46,0,0,0,50,37.43V13.58C50,12.66,50,11.74,50,10.82ZM16.38,40.07H10.65c-.2,0-.23-.06-.23-.25V20.26c0-.19.05-.24.24-.24,1.91,0,3.82,0,5.73,0,.21,0,.24.07.24.25,0,3.26,0,6.53,0,9.79s0,6.51,0,9.76C16.63,40,16.58,40.07,16.38,40.07ZM13.43,17a3.55,3.55,0,1,1,3.66-3.52A3.53,3.53,0,0,1,13.43,17Zm26.32,23H34.2c-.22,0-.26-.06-.26-.27,0-3.44,0-6.88,0-10.33a6.55,6.55,0,0,0-.16-1.65,3.36,3.36,0,0,0-2.94-2.52,5,5,0,0,0-2,.15,3.59,3.59,0,0,0-2.59,2.72,4.53,4.53,0,0,0-.19,1.32c0,3.44,0,6.88,0,10.31,0,.2,0,.27-.25.27H20.3c-.18,0-.23,0-.23-.23q0-9.8,0-19.59c0-.18.05-.23.23-.23h5.25c.18,0,.23,0,.23.22,0,.8,0,1.6,0,2.39v.21A8.44,8.44,0,0,1,34.9,20a6.88,6.88,0,0,1,4.59,4.48A8.44,8.44,0,0,1,40,27.37q0,6.21,0,12.43C40,40,40,40.07,39.75,40.07Z"/></g></g></svg>