<svg xmlns="http://www.w3.org/2000/svg" viewBox="0 0 50 49.99"><defs><style>.cls-1{fill:#fff;}</style></defs><g id="Capa_2" data-name="Capa 2"><g id="Capa_1-2" data-name="Capa 1"><path class="cls-1" d="M25,0A25,25,0,1,0,50,24.7,25,25,0,0,0,25,0Zm4.78,41.67a17.06,17.06,0,0,1-12-.9A17.33,17.33,0,0,1,26.14,7.71c-5.61,5.15-7.66,11.35-5.57,18.78,2.53,7.19,7.69,11.07,15.12,12.13C35.23,39.33,31.82,41.11,29.81,41.67Zm7.4-18.4a6,6,0,0,0-3.88,4.6c-.16.73-.34,1.47-.51,2.2a.26.26,0,0,1-.1.14c-.11-.54-.23-1.09-.33-1.63a8.45,8.45,0,0,0-.91-2.73,5.88,5.88,0,0,0-3.23-2.63c-.51-.18-1-.34-1.54-.51v-.16A7.44,7.44,0,0,0,31,20.1,7.11,7.11,0,0,0,32.33,17c.13-.63.25-1.26.37-1.9,0,0,0-.07.08-.15.2.9.39,1.76.59,2.61A5.9,5.9,0,0,0,37.16,22c.67.26,1.37.47,1.91.65C38.56,22.82,37.87,23,37.21,23.27ZM42,15.44a3.37,3.37,0,0,0-2.46,2.89,3.47,3.47,0,0,1-.26.87c-.07-.38-.14-.76-.22-1.14a3.23,3.23,0,0,0-2.19-2.53L36,15.22c2.29-.38,3.18-1.88,3.31-4l.08,0c0,.14.07.29.11.44s.07.3.1.45a3.49,3.49,0,0,0,1.3,2.33,5.52,5.52,0,0,0,1.83.77Z"/></g></g></svg>