<svg xmlns="http://www.w3.org/2000/svg" viewBox="0 0 51.7 52"><defs><style>.cls-1{fill:none;stroke:#000;stroke-miterlimit:10;stroke-width:2px;}</style></defs><g id="Capa_2" data-name="Capa 2"><g id="Capa_1-2" data-name="Capa 1"><path class="cls-1" d="M1,7.8a.07.07,0,0,0,.08.11A28.08,28.08,0,0,1,20.93,6.79a27.87,27.87,0,0,1,3.36,1.29c15.24,7.08,14.93,29.1-.39,36l-.42.18a27.52,27.52,0,0,1-11.34,2.21A28.5,28.5,0,0,1,1.27,44.2a.07.07,0,0,0-.07.11A30,30,0,0,0,13.83,50.2a34.13,34.13,0,0,0,15-.06c13-2.94,21.63-12.8,21.92-23.54C51,15.09,42.07,5.11,29.43,2,17.55-.92,6.74,3,1,7.8Z"/></g></g></svg>