<svg xmlns="http://www.w3.org/2000/svg" viewBox="0 0 50 50"><defs><style>.cls-1{fill:#fff;}</style></defs><g id="Capa_2" data-name="Capa 2"><g id="Capa_1-2" data-name="Capa 1"><path class="cls-1" d="M36.11,25a11.11,11.11,0,1,1-11-11.13A11.1,11.1,0,0,1,36.11,25ZM25,16.67A8.33,8.33,0,1,0,33.33,25,8.35,8.35,0,0,0,25,16.67Z"/><path class="cls-1" d="M15.56,35.78a1.51,1.51,0,0,1-.47,1.1l-5,5-.75.75a1.39,1.39,0,1,1-2-2l5.78-5.79a1.37,1.37,0,0,1,1.56-.31A1.35,1.35,0,0,1,15.56,35.78Z"/><path class="cls-1" d="M15.56,14.22a1.35,1.35,0,0,1-.84,1.22,1.37,1.37,0,0,1-1.55-.3l-4-4L7.35,9.32a1.34,1.34,0,0,1-.3-1.5A1.31,1.31,0,0,1,8.26,7a1.4,1.4,0,0,1,1.12.46l4.7,4.7,1.06,1.06A1.45,1.45,0,0,1,15.56,14.22Z"/><path class="cls-1" d="M35.8,15.56a1.35,1.35,0,0,1-1.24-.84,1.33,1.33,0,0,1,.27-1.52c.26-.28.53-.53.8-.8l5-5A1.35,1.35,0,0,1,42,7a1.29,1.29,0,0,1,1,1,1.34,1.34,0,0,1-.41,1.36L39,13l-2.11,2.11A1.46,1.46,0,0,1,35.8,15.56Z"/><path class="cls-1" d="M34.44,35.73a1.39,1.39,0,0,1,2.38-.87l3.5,3.49c.77.77,1.56,1.55,2.33,2.33A1.39,1.39,0,0,1,42,43a1.34,1.34,0,0,1-1.36-.39l-3.54-3.54-2.22-2.22A1.48,1.48,0,0,1,34.44,35.73Z"/><path class="cls-1" d="M26.39,5.55V9.72a1.39,1.39,0,0,1-2.76.22,1.64,1.64,0,0,1,0-.22V1.38a1.39,1.39,0,0,1,2.78,0Z"/><path class="cls-1" d="M5.54,26.39H1.39a1.39,1.39,0,0,1-.22-2.76,1,1,0,0,1,.24,0h8.3a1.39,1.39,0,1,1,0,2.78Z"/><path class="cls-1" d="M44.42,26.39H40.3a1.39,1.39,0,1,1,0-2.78h8.3A1.39,1.39,0,0,1,50,24.87a1.4,1.4,0,0,1-1.19,1.51H44.42Z"/><path class="cls-1" d="M26.39,44.44v4.15a1.39,1.39,0,1,1-2.78,0V40.29a1.39,1.39,0,0,1,2.76-.24,1.23,1.23,0,0,1,0,.27Z"/></g></g></svg>