<svg xmlns="http://www.w3.org/2000/svg" viewBox="0 0 50 49.75"><g id="Capa_2" data-name="Capa 2"><g id="Capa_1-2" data-name="Capa 1"><path d="M24.87,36.67A11.79,11.79,0,1,1,36.67,25,11.77,11.77,0,0,1,24.87,36.67Z"/><path d="M33.08,37.79,37.83,33l4.73,9.36-.08.12Z"/><path d="M28.33,10.22a15,15,0,0,0-6.92,0L24.82,0,25,0Z"/><path d="M37.69,16.94A15.52,15.52,0,0,0,32.8,12l9.87-4.89Z"/><path d="M12,32.9c.78.91,1.46,1.81,2.25,2.59s1.65,1.45,2.57,2.23L7.42,42.48l-.15-.1Z"/><path d="M12.07,17,7.28,7.4l.1-.15L17,12.07A15.32,15.32,0,0,0,12.07,17Z"/><path d="M24.8,49.74l-3.27-10h6.7c-1.07,3.28-2.18,6.64-3.28,10Z"/><path d="M50,24.83l-10,3.3V21.6Z"/><path d="M9.76,28.13,0,25l0-.15,9.76-3.23Z"/></g></g></svg>