<svg xmlns="http://www.w3.org/2000/svg" viewBox="0 0 18.77 16"><defs><style>.cls-1{fill:#00fdc2;}.cls-2{fill:#09e4b1;}</style></defs><g id="Capa_2" data-name="Capa 2"><g id="Capa_1-2" data-name="Capa 1"><path class="cls-1" d="M9.88,1.91a1.91,1.91,0,0,0-3-1.59C5.13,1.49,3.36,2.69,1.59,3.9A3.52,3.52,0,0,0,.07,6.4,19.56,19.56,0,0,0,0,9.16a3.61,3.61,0,0,0,1.5,3c.32.24.67.46,1,.68a2.92,2.92,0,0,0-.41-.94,1.94,1.94,0,0,1,.7-2.63L4.65,8.05,5,7.81l4-2.7a1.9,1.9,0,0,0,.9-1.66C9.88,2.94,9.89,2.42,9.88,1.91Z"/><path class="cls-1" d="M9,11c-.54-.38-1.1-.74-1.65-1.11-.71,1-1.42,1.93-2.12,2.9l-.59.81a.82.82,0,0,0-.18.49c.8.55,1.58,1.12,2.4,1.63a1.92,1.92,0,0,0,2.91-1.6q0-.82,0-1.65A1.78,1.78,0,0,0,9,11Z"/><path class="cls-2" d="M7.36,9.89c-.71,1-1.42,1.93-2.12,2.9l-.59.81a.82.82,0,0,0-.18.49L2.54,12.81a2.92,2.92,0,0,0-.41-.94,1.94,1.94,0,0,1,.7-2.63L4.65,8.05Z"/><path class="cls-2" d="M16.92,4.53c.11.24.22.48.34.72A1.3,1.3,0,0,1,16.9,7c-.42.34-.89.61-1.33.91,0,0-.08,0-.13,0-.62-.35-1.19-.79-1.79-1.18-.39-.25-.78-.52-1.16-.79a.78.78,0,0,1,.11-.2l1.72-2.3A1.75,1.75,0,0,0,14.61,3C15.4,3.48,16.16,4,16.92,4.53Z"/><path class="cls-1" d="M18.77,7.63a4.64,4.64,0,0,0-.07-1,3.24,3.24,0,0,0-1.78-2c.11.24.22.48.34.72A1.3,1.3,0,0,1,16.9,7c-.42.34-.89.61-1.33.91,0,0-.08,0-.13,0s-.13.15-.21.21l-2.86,1.92a1.36,1.36,0,0,0-.66,1.23c0,.36,0,.72,0,1.08a1.36,1.36,0,0,0,2.11,1.13c1.29-.83,2.56-1.69,3.82-2.56a2.58,2.58,0,0,0,1.1-1.82A14.82,14.82,0,0,0,18.77,7.63Z"/><path class="cls-1" d="M11.78,4.71A1.35,1.35,0,0,0,12.49,6a.78.78,0,0,1,.11-.2l1.72-2.3A1.75,1.75,0,0,0,14.61,3a3.14,3.14,0,0,0-.48-.33,1.37,1.37,0,0,0-1.55-.25,1.35,1.35,0,0,0-.8,1.35Z"/></g></g></svg>