<?xml version="1.0" encoding="utf-8"?>
<!-- Generator: Adobe Illustrator 24.2.3, SVG Export Plug-In . SVG Version: 6.00 Build 0)  -->
<svg version="1.1" id="Capa_1" xmlns="http://www.w3.org/2000/svg" xmlns:xlink="http://www.w3.org/1999/xlink" x="0px" y="0px"
	 viewBox="0 0 16 16" style="enable-background:new 0 0 16 16;" xml:space="preserve">
<style type="text/css">
	.st0{fill:#A55FDC;}
</style>
<g id="Capa_2_1_">
	<g>
		<g id="Capa_1-2_8_">
			<path class="st0" d="M6.3,0C2,1-0.8,5.3,0.2,9.7c0.2,0.8,0.5,1.6,0.9,2.3L5.7,0.8c0.1-0.1,0.2-0.1,0.3,0c0,0,0,0,0,0l1.6,4L6,9
				h3.5l0.1,0.1l0.9,2.3c0,0.1,0,0.1-0.1,0.1H4.9l-1.3,3.3c2.7,1.8,6.2,1.8,8.9-0.1L6.3,0z"/>
			<path class="st0" d="M14.9,12.1c2.3-3.9,1-8.8-2.9-11.1C11.3,0.5,10.5,0.2,9.6,0L14.9,12.1z"/>
		</g>
	</g>
</g>
</svg>
