<svg xmlns="http://www.w3.org/2000/svg" viewBox="0 0 261.22 222.61"><defs><style>.cls-1{fill:#00fdc2;}.cls-2{fill:#09e4b1;}</style></defs><g id="Capa_2" data-name="Capa 2"><g id="Capa_1-2" data-name="Capa 1"><path class="cls-1" d="M137.41,26.52C136.84,5.3,114.17-7.16,96.34,4.43c-25,16.24-49.64,33-74.16,49.87A48.51,48.51,0,0,0,1,89.1c-1.68,12.76-.8,25.61-.63,38.41.22,17,7.31,30.88,20.87,41.23,4.49,3.43,9.34,6.38,14,9.54-.55-4.95-3.51-8.9-5.6-13.19-6.92-14.2-3.42-27.75,9.69-36.48C47.77,123,56.28,117.54,64.74,112c1.44-1.11,2.81-2.31,4.32-3.32Q97,89.85,125,71.08C133.22,65.56,137.52,58,137.46,48,137.41,40.84,137.6,33.68,137.41,26.52Z"/><path class="cls-1" d="M125.39,153c-7.54-5.33-15.35-10.25-23-15.35L72.9,177.9c-2.75,3.76-5.42,7.57-8.25,11.27a11.39,11.39,0,0,0-2.44,6.92c11.12,7.56,22,15.55,33.41,22.59,17.45,10.72,39.74-1.7,40.47-22.28.27-7.63.22-15.3,0-22.94C135.82,165,132.34,157.93,125.39,153Z"/><path class="cls-2" d="M102.35,137.67,72.9,177.9c-2.75,3.76-5.42,7.57-8.25,11.27a11.39,11.39,0,0,0-2.44,6.92L35.27,178.28c-.55-4.95-3.51-8.9-5.6-13.19-6.92-14.2-3.42-27.75,9.69-36.48C47.77,123,56.28,117.54,64.74,112Z"/><path class="cls-2" d="M235.44,63.09c1.55,3.33,3.08,6.67,4.65,10,4.51,9.52,3.2,17.57-5,24.24-5.77,4.71-12.31,8.49-18.53,12.64a5.65,5.65,0,0,1-1.71.42c-8.64-5-16.61-11-25-16.41-5.48-3.56-10.8-7.35-16.19-11a22.87,22.87,0,0,1,1.57-2.78q11.92-16,23.92-31.95c1.56-2.09,3.24-4.11,4.06-6.66C214.22,48.38,224.84,55.72,235.44,63.09Z"/><path class="cls-1" d="M261.15,106.17a59.51,59.51,0,0,0-1-14.58c-3.1-14-13.16-21.85-24.67-28.5,1.55,3.33,3.08,6.67,4.65,10,4.51,9.52,3.2,17.57-5,24.24-5.77,4.71-12.31,8.49-18.53,12.64a5.65,5.65,0,0,1-1.71.42c-.28,1.69-1.87,2.07-3,2.83Q192,126.62,172.12,139.92c-6.14,4.09-9.34,9.67-9.23,17.11.06,5-.11,10,.05,15,.47,15.22,16.67,24.1,29.4,15.81,17.88-11.64,35.55-23.6,53.12-35.7,8.76-6,13.78-14.66,15.23-25.27C261.64,120,261,113.08,261.15,106.17Z"/><path class="cls-1" d="M163.86,65.52c0,7.67,3.18,13.54,9.87,17.41a22.87,22.87,0,0,1,1.57-2.78q11.92-16,23.92-31.95c1.56-2.09,3.24-4.11,4.06-6.66-1.84-2-4.54-2.8-6.65-4.54-6.42-5.29-13.66-7.25-21.58-3.43s-11.31,10.17-11.2,18.73C163.9,56.71,163.85,61.12,163.86,65.52Z"/></g></g></svg>