<svg xmlns="http://www.w3.org/2000/svg" viewBox="0 0 49.91 48.68"><defs><style>.cls-1{fill:#fff;}</style></defs><g id="Capa_2" data-name="Capa 2"><g id="Capa_1-2" data-name="Capa 1"><path class="cls-1" d="M0,23.36c.13-.91.23-1.83.38-2.74a23.7,23.7,0,0,1,4-9.78A24.79,24.79,0,0,1,27.46.13,24.06,24.06,0,0,1,39.82,4.9a24.85,24.85,0,0,1,9.84,23.48,24.72,24.72,0,0,1-10,16.73A23.36,23.36,0,0,1,33,48.56a1.26,1.26,0,0,1-1.84-1.31c0-2.16,0-4.32,0-6.48a7.18,7.18,0,0,0-.53-3.14c-.28-.58-.66-1.11-1-1.66.91-.17,1.9-.29,2.86-.54a10.51,10.51,0,0,0,6.36-4A11.76,11.76,0,0,0,40.73,26a14.49,14.49,0,0,0-.06-4.41,9.13,9.13,0,0,0-2.11-4.32.59.59,0,0,1-.13-.69,8.48,8.48,0,0,0-.33-6,.53.53,0,0,0-.39-.26,4.31,4.31,0,0,0-2.45.48c-1.26.59-2.48,1.28-3.72,1.89a1.3,1.3,0,0,1-.77.13,23.49,23.49,0,0,0-11.66,0,1,1,0,0,1-.75-.14,18.31,18.31,0,0,0-5.08-2.29l-.09,0c-1.17-.25-1.38-.12-1.71,1a8.49,8.49,0,0,0,0,5.32.6.6,0,0,1-.1.5c-2.09,2.38-2.56,5.2-2.28,8.24a14.24,14.24,0,0,0,1.39,5.08,8.83,8.83,0,0,0,5.32,4.43,38,38,0,0,0,4.25,1l.17,0c-.36.66-.74,1.32-1.08,2a1.85,1.85,0,0,0-.22.75.88.88,0,0,1-.77.89c-1.58.43-3.15.7-4.66-.22a5.55,5.55,0,0,1-1.85-2,5.29,5.29,0,0,0-3.09-2.52A4.86,4.86,0,0,0,7,34.77c-.33,0-.43.29-.21.57a3.11,3.11,0,0,0,.73.76,6.7,6.7,0,0,1,2.69,3.36,6,6,0,0,0,1.32,2.13,5.66,5.66,0,0,0,3.67,1.35c1.18.06,2.35,0,3.61,0,0,.7,0,1.53,0,2.35,0,.63,0,1.27,0,1.9a1.3,1.3,0,0,1-1.88,1.36,24.23,24.23,0,0,1-9.65-6,25.3,25.3,0,0,1-5.9-9.41A24.93,24.93,0,0,1,.08,26.85c0-.19,0-.38-.08-.57Z"/></g></g></svg>