<svg xmlns="http://www.w3.org/2000/svg" viewBox="0 0 51 51"><defs><style>.cls-1{fill:#fefefe;}</style></defs><g id="Capa_2" data-name="Capa 2"><g id="Capa_1-2" data-name="Capa 1"><path class="cls-1" d="M50.91,23.27A25.49,25.49,0,0,0,29.76.35C29.08.24,28.39.15,27.7.09c-.06,0-.18.06-.17-.09H23.47c0,.15-.13.09-.2.09A25.49,25.49,0,0,0,.35,21.24c-.11.68-.2,1.37-.26,2.06,0,.06.06.18-.09.17v4.06c.15,0,.09.13.09.2A25.49,25.49,0,0,0,21.24,50.65c.68.11,1.37.2,2.06.26.06,0,.18-.06.17.09h4.06c0-.14.13-.09.2-.09a25.79,25.79,0,0,0,5.69-1.16,25.53,25.53,0,0,0,17.23-20c.11-.68.2-1.37.26-2.06,0-.06-.06-.18.09-.17V23.47C50.85,23.46,50.91,23.34,50.91,23.27ZM42,36.26A2.87,2.87,0,0,1,41.43,38a2.71,2.71,0,0,1-.67.59,2.92,2.92,0,0,1-.87.34,3.19,3.19,0,0,1-.54,0H34.12L34,39c-.11,0-.14-.1-.14-.26q0-6.19,0-12.4c0-.13,0-.25,0-.37a1.9,1.9,0,0,0-.21.19q-2.57,2.55-5.11,5.11a4.11,4.11,0,0,1-6.05,0l-5.11-5.11L17.16,26c0,.11,0,.21,0,.31V38.68c0,.2,0,.28-.17.31H11.64A2.59,2.59,0,0,1,9,36.38V16.85H9v-.16a4.89,4.89,0,0,1,.33-2.27,4.06,4.06,0,0,1,6.6-1.23q4.68,4.67,9.35,9.36c.17.17.26.18.44,0l7.9-7.91.21-.19a13.2,13.2,0,0,1,1.65-1.61A4.05,4.05,0,0,1,42,16c0,.25,0,.5,0,.75,0,.45,0,.9,0,1.35Z"/></g></g></svg>