<svg xmlns="http://www.w3.org/2000/svg" viewBox="0 0 150 35.1"><defs><style>.cls-1{fill:#00fdc2;}.cls-2{fill:#09e4b1;}</style></defs><g id="Capa_2" data-name="Capa 2"><g id="Capa_1-2" data-name="Capa 1"><path class="cls-1" d="M21.67,4.18A4.18,4.18,0,0,0,15.19.7C11.25,3.26,7.36,5.9,3.5,8.56A7.65,7.65,0,0,0,.16,14.05a40.85,40.85,0,0,0-.1,6.06,8,8,0,0,0,3.29,6.5c.71.54,1.47,1,2.21,1.5A6.37,6.37,0,0,0,4.68,26a4.22,4.22,0,0,1,1.53-5.75c1.32-.88,2.66-1.75,4-2.62.23-.17.44-.36.68-.52l8.82-5.93a4.12,4.12,0,0,0,2-3.64C21.67,6.44,21.7,5.31,21.67,4.18Z"/><path class="cls-1" d="M19.77,24.13c-1.19-.84-2.42-1.62-3.63-2.42L11.5,28.05c-.44.6-.86,1.2-1.31,1.78a1.83,1.83,0,0,0-.38,1.09c1.75,1.19,3.47,2.45,5.27,3.56A4.2,4.2,0,0,0,21.46,31c0-1.2,0-2.41,0-3.62A3.9,3.9,0,0,0,19.77,24.13Z"/><path class="cls-2" d="M16.14,21.71,11.5,28.05c-.44.6-.86,1.2-1.31,1.78a1.83,1.83,0,0,0-.38,1.09L5.56,28.11A6.37,6.37,0,0,0,4.68,26a4.22,4.22,0,0,1,1.53-5.75c1.32-.88,2.66-1.75,4-2.62Z"/><path class="cls-2" d="M37.13,10c.24.52.48,1.05.73,1.57a2.87,2.87,0,0,1-.78,3.83c-.91.74-1.94,1.33-2.93,2-.07.05-.17,0-.26.07-1.37-.79-2.62-1.74-3.94-2.59-.86-.56-1.7-1.16-2.55-1.74a3.09,3.09,0,0,1,.24-.44l3.77-5a3.69,3.69,0,0,0,.65-1C33.78,7.63,35.46,8.79,37.13,10Z"/><path class="cls-1" d="M41.18,16.74a9.35,9.35,0,0,0-.16-2.3c-.49-2.2-2.08-3.44-3.89-4.49.24.52.48,1.05.73,1.57a2.87,2.87,0,0,1-.78,3.83c-.91.74-1.94,1.33-2.93,2-.07.05-.17,0-.26.07,0,.26-.3.32-.48.44-2.08,1.41-4.17,2.82-6.27,4.21a3,3,0,0,0-1.45,2.7c0,.79,0,1.58,0,2.37a3,3,0,0,0,4.64,2.49c2.82-1.83,5.61-3.72,8.38-5.62a5.6,5.6,0,0,0,2.4-4A27.46,27.46,0,0,0,41.18,16.74Z"/><path class="cls-1" d="M25.84,10.33a3,3,0,0,0,1.56,2.75,3.09,3.09,0,0,1,.24-.44l3.77-5a3.69,3.69,0,0,0,.65-1A9.73,9.73,0,0,0,31,5.83a3,3,0,0,0-3.41-.54,3,3,0,0,0-1.76,3C25.85,8.94,25.84,9.64,25.84,10.33Z"/><path d="M113.21,15.16V6.85h4.15v21h-4.14V26c-1.71,3.17-7,2.79-9.23,0-2.4-3-2.26-8.2.43-11a6.22,6.22,0,0,1,6-1.8A4.8,4.8,0,0,1,113.21,15.16Zm-6.78,5.51c.07.49.1.9.19,1.3A3.44,3.44,0,0,0,110,24.76,3.39,3.39,0,0,0,113.37,22a5.12,5.12,0,0,0-.06-2.8A3.43,3.43,0,0,0,110,16.68a3.36,3.36,0,0,0-3.27,2.5A12.68,12.68,0,0,0,106.43,20.67Z"/><path d="M83,27.8V26.23c-.08,0-.13,0-.15,0-1.69,2.66-6.26,2.58-8.56.21a8.07,8.07,0,0,1-2.15-6.58,7.59,7.59,0,0,1,1.94-4.65,6,6,0,0,1,6-1.92A4.79,4.79,0,0,1,83,15.38V13.57h4.19V27.8Zm.31-7.18c0-.24-.06-.6-.13-.94a3.68,3.68,0,0,0-3.51-3,3.5,3.5,0,0,0-3.38,2.92,4.69,4.69,0,0,0,.3,3.17,3.43,3.43,0,0,0,5,1.49A4.16,4.16,0,0,0,83.29,20.62Z"/><path d="M63.05,27.8H58.89V26.07c-1.67,2.24-3.83,2.55-6.17,1.88a6.41,6.41,0,0,1-4.52-5.22,8.51,8.51,0,0,1,1-6.54,6.15,6.15,0,0,1,6.7-2.88,5,5,0,0,1,2.93,2.09V13.56h4.18ZM52,20.68l.08,0c0,.24,0,.47,0,.71a3.61,3.61,0,0,0,3.2,3.34,3.43,3.43,0,0,0,3.61-2.37,4.56,4.56,0,0,0-.25-3.82,3.36,3.36,0,0,0-3.29-1.89,3.23,3.23,0,0,0-3,2.25A12.91,12.91,0,0,0,52,20.68Z"/><path d="M134.37,22h-10.6a3.19,3.19,0,0,0,1.94,2.93c2.27.87,3.85-.29,5.3-1.89l2.92,2a7.69,7.69,0,0,1-5.42,3.18,9.86,9.86,0,0,1-3.86-.28,6.92,6.92,0,0,1-5.09-6.7,7.47,7.47,0,0,1,5.76-7.93,7.22,7.22,0,0,1,9.05,6.75C134.41,20.66,134.37,21.27,134.37,22Zm-4.17-2.74a3,3,0,0,0-2.95-3.09,3.28,3.28,0,0,0-3.52,3.09Z"/><path d="M101.39,14.22l-1.3,3.24c-.26-.1-.52-.18-.76-.28a5.05,5.05,0,0,0-2.85-.26,3.81,3.81,0,0,0-2.94,4.4,3.73,3.73,0,0,0,4.13,3.28,5,5,0,0,0,1.21-.24,11.56,11.56,0,0,0,1.18-.52l1.39,2.88a7.94,7.94,0,0,1-7.84.89,6.76,6.76,0,0,1-4.27-6.11c-.5-6.4,5.31-9.8,10.91-7.76C100.62,13.87,101,14,101.39,14.22Z"/><rect x="65.8" y="6.83" width="4.1" height="20.97"/><polygon points="135.34 13.26 139.28 13.26 142.59 22.34 145.9 13.26 150 13.26 144.64 28.24 140.7 28.24 135.34 13.26"/></g></g></svg>