<svg xmlns="http://www.w3.org/2000/svg" viewBox="0 0 951.22 222.61"><defs><style>.cls-1{fill:#00fdc2;}.cls-2{fill:#09e4b1;}.cls-3{fill:#fff;}</style></defs><g id="Capa_2" data-name="Capa 2"><g id="Capa_1-2" data-name="Capa 1"><path class="cls-1" d="M137.41,26.52C136.84,5.3,114.17-7.16,96.34,4.43c-25,16.24-49.64,33-74.16,49.87A48.51,48.51,0,0,0,1,89.1c-1.68,12.76-.8,25.61-.63,38.41.22,17,7.31,30.88,20.87,41.23,4.49,3.43,9.34,6.38,14,9.54-.55-4.95-3.51-8.9-5.6-13.19-6.92-14.2-3.42-27.75,9.69-36.48C47.77,123,56.28,117.54,64.74,112c1.44-1.11,2.81-2.31,4.32-3.32Q97,89.85,125,71.08C133.22,65.56,137.52,58,137.46,48,137.41,40.84,137.6,33.68,137.41,26.52Z"/><path class="cls-1" d="M125.39,153c-7.54-5.33-15.35-10.25-23-15.35L72.9,177.9c-2.75,3.76-5.42,7.57-8.25,11.27a11.39,11.39,0,0,0-2.44,6.92c11.12,7.56,22,15.55,33.41,22.59,17.45,10.72,39.74-1.7,40.47-22.28.27-7.63.22-15.3,0-22.94C135.82,165,132.34,157.93,125.39,153Z"/><path class="cls-2" d="M102.35,137.67,72.9,177.9c-2.75,3.76-5.42,7.57-8.25,11.27a11.39,11.39,0,0,0-2.44,6.92L35.27,178.28c-.55-4.95-3.51-8.9-5.6-13.19-6.92-14.2-3.42-27.75,9.69-36.48C47.77,123,56.28,117.54,64.74,112Z"/><path class="cls-2" d="M235.44,63.09c1.55,3.33,3.08,6.67,4.65,10,4.51,9.52,3.2,17.57-5,24.24-5.77,4.71-12.31,8.49-18.53,12.64a5.65,5.65,0,0,1-1.71.42c-8.64-5-16.61-11-25-16.41-5.48-3.56-10.8-7.35-16.19-11a22.87,22.87,0,0,1,1.57-2.78q11.92-16,23.92-31.95c1.56-2.09,3.24-4.11,4.06-6.66C214.22,48.38,224.84,55.72,235.44,63.09Z"/><path class="cls-1" d="M261.15,106.17a59.51,59.51,0,0,0-1-14.58c-3.1-14-13.16-21.85-24.67-28.5,1.55,3.33,3.08,6.67,4.65,10,4.51,9.52,3.2,17.57-5,24.24-5.77,4.71-12.31,8.49-18.53,12.64a5.65,5.65,0,0,1-1.71.42c-.28,1.69-1.87,2.07-3,2.83Q192,126.62,172.12,139.92c-6.14,4.09-9.34,9.67-9.23,17.11.06,5-.11,10,.05,15,.47,15.22,16.67,24.1,29.4,15.81,17.88-11.64,35.55-23.6,53.12-35.7,8.76-6,13.78-14.66,15.23-25.27C261.64,120,261,113.08,261.15,106.17Z"/><path class="cls-1" d="M163.86,65.52c0,7.67,3.18,13.54,9.87,17.41a22.87,22.87,0,0,1,1.57-2.78q11.92-16,23.92-31.95c1.56-2.09,3.24-4.11,4.06-6.66-1.84-2-4.54-2.8-6.65-4.54-6.42-5.29-13.66-7.25-21.58-3.43s-11.31,10.17-11.2,18.73C163.9,56.71,163.85,61.12,163.86,65.52Z"/><path d="M717.92,96.16V43.46h26.34V176.34H718V165c-10.85,20.12-44.6,17.71-58.53.26-15.27-19.12-14.37-52,2.69-69.46,10.42-10.67,23.16-14.26,37.72-11.43C707.39,85.8,713,90.1,717.92,96.16Zm-43,34.91c.43,3.08.6,5.72,1.19,8.25C678.61,150,687,156.88,697.42,157s18.72-6.45,21.49-17.31a32.47,32.47,0,0,0-.37-17.73c-3-9.91-11.08-16.1-21-16.2-9.56-.09-17.71,6-20.76,15.86A86.77,86.77,0,0,0,674.94,131.07Z"/><path d="M526.22,176.29v-9.95c-.51,0-.86,0-.93.1-10.73,16.9-39.71,16.37-54.33,1.33-11.34-11.67-14.84-26-13.62-41.7.87-11.12,4.69-21.21,12.33-29.52,10.23-11.11,22.9-15.12,37.69-12.12C515,86,520.87,90.47,526,97.54V86h26.61v90.26Zm1.94-45.5c-.21-1.58-.37-3.83-.83-6-2.37-11.26-11.56-19.15-22.26-19.2-10.26-.06-18.81,7.25-21.44,18.53a30.22,30.22,0,0,0,1.91,20.1c5.71,12.2,20.53,16.66,31.61,9.45C525.12,148.46,527.7,140.46,528.16,130.79Z"/><path d="M399.8,176.29H373.42v-11c-10.58,14.21-24.28,16.15-39.08,11.91-16.38-4.7-25.13-17-28.66-33.07-3.2-14.56-1.47-28.61,6.54-41.48,9.39-15.07,26-22.11,42.52-18.24,7.61,1.78,13.46,6.17,18.56,13.25V86h26.5Zm-70.29-45.14.49.13c.09,1.5.12,3,.29,4.48,1.31,11.63,9.3,20,20.26,21.2,10,1.12,19.33-4.89,22.87-15,2.88-8.25,2.67-16.49-1.58-24.26-4.45-8.16-11.5-12.49-20.83-12s-15.5,5.82-18.81,14.29C330.83,123.52,330.38,127.42,329.51,131.15Z"/><path d="M852.13,139.36H784.87c-.56,7.1,5,15.78,12.34,18.61,14.34,5.53,24.37-1.87,33.59-12l18.49,12.79c-8.91,11.47-20,18.64-34.34,20.12-8.26.85-16.47.63-24.51-1.73C771,171.43,759.29,156,758.17,134.62c-1.28-24.59,13.7-45.21,36.55-50.3,29.56-6.59,55.27,12.57,57.37,42.85C852.36,131,852.13,134.88,852.13,139.36ZM825.64,122A19.24,19.24,0,0,0,807,102.39c-12-.5-21.49,7.74-22.34,19.59Z"/><path d="M643,90.18c-2.82,7-5.46,13.6-8.25,20.53-1.69-.61-3.28-1.15-4.85-1.75a31.33,31.33,0,0,0-18-1.66c-12.78,2.71-20.64,14.64-18.64,27.9s12.64,21.9,26.16,20.82A34.61,34.61,0,0,0,627,154.5a75.54,75.54,0,0,0,7.51-3.32c2.89,6,5.78,12,8.8,18.27-15.84,10.39-32.45,12.91-49.73,5.63C576.76,168,568,154.32,566.56,136.36c-3.15-40.61,33.64-62.18,69.19-49.25C638.08,88,640.33,89.05,643,90.18Z"/><rect x="417.28" y="43.29" width="26" height="132.99"/><path class="cls-3" d="M674.94,131.07a86.77,86.77,0,0,1,1.88-9.46c3-9.85,11.2-16,20.76-15.86,9.88.1,18,6.29,21,16.2a32.47,32.47,0,0,1,.37,17.73C716.14,150.54,708,157.1,697.42,157s-18.81-7-21.29-17.67C675.54,136.79,675.37,134.15,674.94,131.07Z"/><path class="cls-3" d="M528.16,130.79c-.46,9.67-3,17.67-11,22.87-11.08,7.21-25.9,2.75-31.61-9.45a30.22,30.22,0,0,1-1.91-20.1c2.63-11.28,11.18-18.59,21.44-18.53,10.7,0,19.89,7.94,22.26,19.2C527.79,127,528,129.21,528.16,130.79Z"/><path class="cls-3" d="M329.51,131.15c.87-3.73,1.32-7.63,2.69-11.17,3.31-8.47,9.54-13.79,18.81-14.29s16.38,3.84,20.83,12c4.25,7.77,4.46,16,1.58,24.26-3.54,10.12-12.88,16.13-22.87,15-11-1.23-18.95-9.57-20.26-21.2-.17-1.48-.2-3-.29-4.48Z"/><path class="cls-3" d="M825.64,122h-41c.85-11.85,10.35-20.09,22.34-19.59A19.24,19.24,0,0,1,825.64,122Z"/><polygon points="858.22 84.06 883.22 84.06 904.22 141.66 925.22 84.06 951.22 84.06 917.22 179.06 892.22 179.06 858.22 84.06"/></g></g></svg>