<svg xmlns="http://www.w3.org/2000/svg" viewBox="0 0 102.04 21.45"><defs><style>.cls-1{fill:#fff;}</style></defs><g id="Capa_2" data-name="Capa 2"><g id="Capa_1-2" data-name="Capa 1"><path class="cls-1" d="M65.25,8.34V0H69.4V21H65.26V19.19c-1.71,3.17-7,2.79-9.23,0-2.41-3-2.27-8.19.43-11A6.19,6.19,0,0,1,62.4,6.47,4.76,4.76,0,0,1,65.25,8.34Zm-6.78,5.5c.07.49.09.9.19,1.3A3.44,3.44,0,0,0,62,17.93,3.37,3.37,0,0,0,65.4,15.2a5.12,5.12,0,0,0-.06-2.8A3.42,3.42,0,0,0,62,9.85a3.37,3.37,0,0,0-3.27,2.5A13.1,13.1,0,0,0,58.47,13.84Z"/><path class="cls-1" d="M35,21V19.4c-.08,0-.14,0-.15,0-1.69,2.66-6.26,2.58-8.57.21a8,8,0,0,1-2.14-6.58A7.48,7.48,0,0,1,26.1,8.4,6,6,0,0,1,32,6.49,4.73,4.73,0,0,1,35,8.55V6.74h4.2V21Zm.3-7.17c0-.25-.06-.61-.13-1a3.67,3.67,0,0,0-3.51-3,3.52,3.52,0,0,0-3.38,2.92,4.8,4.8,0,0,0,.3,3.17,3.44,3.44,0,0,0,5,1.49A4.15,4.15,0,0,0,35.32,13.8Z"/><path class="cls-1" d="M15.08,21H10.92V19.24c-1.67,2.24-3.83,2.55-6.16,1.88A6.38,6.38,0,0,1,.24,15.9a8.5,8.5,0,0,1,1-6.54A6.17,6.17,0,0,1,8,6.49,4.86,4.86,0,0,1,10.9,8.58V6.74h4.18ZM4,13.85l.07,0c0,.23,0,.47,0,.7a3.6,3.6,0,0,0,3.19,3.34,3.42,3.42,0,0,0,3.61-2.36,4.55,4.55,0,0,0-.25-3.83A3.35,3.35,0,0,0,7.39,9.84a3.24,3.24,0,0,0-3,2.25A11.86,11.86,0,0,0,4,13.85Z"/><path class="cls-1" d="M86.41,15.15H75.8a3.19,3.19,0,0,0,2,2.93c2.26.87,3.84-.29,5.3-1.89l2.91,2a7.66,7.66,0,0,1-5.41,3.17,10.1,10.1,0,0,1-3.87-.27,7,7,0,0,1-5.09-6.71,7.47,7.47,0,0,1,5.77-7.93,7.22,7.22,0,0,1,9,6.76C86.45,13.83,86.41,14.44,86.41,15.15Zm-4.18-2.74a3,3,0,0,0-2.94-3.09,3.28,3.28,0,0,0-3.52,3.09Z"/><path class="cls-1" d="M53.43,7.39l-1.3,3.24-.77-.28a5,5,0,0,0-2.84-.26,3.79,3.79,0,0,0-2.94,4.4,3.73,3.73,0,0,0,4.12,3.29,6.27,6.27,0,0,0,1.22-.24A11.74,11.74,0,0,0,52.1,17l1.39,2.88a7.94,7.94,0,0,1-7.84.89,6.76,6.76,0,0,1-4.27-6.1c-.5-6.41,5.3-9.81,10.91-7.77C52.66,7,53,7.21,53.43,7.39Z"/><rect class="cls-1" x="17.84" width="4.1" height="20.97"/><polygon class="cls-1" points="87.37 6.43 91.31 6.43 94.62 15.51 97.94 6.43 102.04 6.43 96.67 21.41 92.73 21.41 87.37 6.43"/></g></g></svg>